<?xml version="1.0" encoding="utf-8"?>
<!-- Generator: Adobe Illustrator 23.0.3, SVG Export Plug-In . SVG Version: 6.00 Build 0)  -->
<svg version="1.1" id="Layer_1" xmlns="http://www.w3.org/2000/svg" xmlns:xlink="http://www.w3.org/1999/xlink" x="0px" y="0px"
	 viewBox="0 0 50.37 50.63" style="enable-background:new 0 0 50.37 50.63;" xml:space="preserve">
<style type="text/css">
	.st0{fill:#FFFFFF;}
</style>
<path class="st0" d="M37.21,10.64H13.16c-1.47,0-2.66,1.19-2.66,2.66v24.05c0,1.47,1.19,2.66,2.66,2.66h24.05
	c1.47,0,2.66-1.19,2.66-2.66V13.29C39.87,11.82,38.68,10.64,37.21,10.64z M19.59,35.98c0,0.43-0.35,0.77-0.77,0.77h-3.29
	c-0.43,0-0.77-0.35-0.77-0.77V22.19c0-0.43,0.35-0.77,0.77-0.77h3.29c0.43,0,0.77,0.35,0.77,0.77V35.98z M17.18,20.12
	c-1.73,0-3.13-1.4-3.13-3.13c0-1.73,1.4-3.13,3.13-3.13c1.73,0,3.13,1.4,3.13,3.13C20.3,18.72,18.9,20.12,17.18,20.12z M36.78,36.05
	c0,0.39-0.32,0.71-0.71,0.71h-3.53c-0.39,0-0.71-0.32-0.71-0.71v-6.47c0-0.96,0.28-4.23-2.52-4.23c-2.18,0-2.62,2.23-2.71,3.24v7.46
	c0,0.39-0.32,0.71-0.71,0.71h-3.41c-0.39,0-0.71-0.32-0.71-0.71V22.13c0-0.39,0.32-0.71,0.71-0.71h3.41c0.39,0,0.71,0.32,0.71,0.71
	v1.2c0.81-1.21,2.01-2.15,4.56-2.15c5.65,0,5.62,5.28,5.62,8.18V36.05L36.78,36.05z"/>
</svg>
