<?xml version="1.0" encoding="utf-8"?>
<!-- Generator: Adobe Illustrator 23.0.3, SVG Export Plug-In . SVG Version: 6.00 Build 0)  -->
<svg version="1.1" id="Layer_1" xmlns="http://www.w3.org/2000/svg" xmlns:xlink="http://www.w3.org/1999/xlink" x="0px" y="0px"
	 viewBox="0 0 165.71 69.05" style="enable-background:new 0 0 165.71 69.05;" xml:space="preserve">
<style type="text/css">
	.st0{fill:#FFFFFF;}
</style>
<path class="st0" d="M80.15,40.39c-1.03,0-2.26,0.33-2.98,1.06v-5.57h-3.57v16.5h3.57v-6.86c0.07-1.08,0.8-1.88,1.93-1.88
	c1.29,0,1.9,0.87,1.9,2.02v6.72h3.57v-7.33C84.57,42.49,83.21,40.39,80.15,40.39z M77.14,26.41c0.07-1.08,0.8-1.88,1.93-1.88
	c1.29,0,1.9,0.87,1.9,2.02v6.72h3.57v-7.33c0-2.56-1.36-4.65-4.42-4.65c-1.03,0-2.26,0.33-2.98,1.06V16.9h-3.57v16.37h3.57V26.41z
	 M69.48,45.12l-1.55-0.31c-0.52-0.09-0.92-0.38-0.92-0.87c0-0.61,0.59-1.01,1.27-1.01c1.08,0,1.57,0.66,1.67,1.43l2.96-0.54
	c-0.12-1.36-1.29-3.48-4.68-3.48c-2.61,0-4.49,1.74-4.49,3.88c0,1.65,0.99,3.06,3.48,3.6l1.34,0.31c0.87,0.19,1.15,0.54,1.15,0.96
	c0,0.52-0.45,1.01-1.36,1.01c-1.22,0-1.79-0.78-1.83-1.57l-3.03,0.54c0.09,1.29,1.27,3.67,4.94,3.67c3.13,0,4.65-1.95,4.65-3.95
	C73.08,47.07,71.9,45.61,69.48,45.12z M18.19,20.17l31.65,31.65l2.71-2.71L20.9,17.46L18.19,20.17z M38.02,20.73h11.27V32h3.83V16.9
	h-15.1V20.73z M66.38,29.72c0,2.33,1.48,3.76,3.9,3.76c1.13,0,1.72-0.26,1.86-0.33v-2.96c-0.21,0.05-0.56,0.12-0.94,0.12
	c-0.78,0-1.29-0.26-1.29-1.22v-4.37h2.28v-3.13H69.9v-3.41h-3.2v1.5c0,1.08-0.59,1.9-1.81,1.9h-0.59v3.13h2.07V29.72z M21.46,37.29
	h-3.83v15.1h15.1v-3.83H21.46V37.29z M140.08,40.7h-3.57v6.65c0,1.18-0.75,2-1.95,2c-1.27,0-1.88-0.89-1.88-2.02V40.7h-3.57v7.38
	c0,2.49,1.6,4.56,4.44,4.56c1.18,0,2.52-0.42,3.13-1.43c0,0.31,0.05,0.96,0.09,1.18h3.43c-0.02-0.19-0.12-1.03-0.12-2.09V40.7z
	 M148.99,43.83V40.7h-2.28v-3.41h-3.2v1.5c0,1.08-0.59,1.9-1.81,1.9h-0.59v3.13h2.07v5.01c0,2.33,1.48,3.76,3.9,3.76
	c1.13,0,1.72-0.26,1.86-0.33V49.3c-0.21,0.05-0.56,0.12-0.94,0.12c-0.78,0-1.29-0.26-1.29-1.22v-4.37H148.99z M91.57,33.62
	c2.96,0,4.82-1.69,5.38-3.71l-2.99-0.85c-0.33,0.92-1.06,1.53-2.35,1.53c-1.39,0-2.59-0.94-2.66-2.26h8.13
	c0.02-0.07,0.07-0.61,0.07-1.1c0-3.76-2.23-5.99-5.85-5.99c-3.03,0-5.83,2.4-5.83,6.16C85.49,31.32,88.35,33.62,91.57,33.62z
	 M91.36,24.06c1.69,0,2.3,1.08,2.35,1.97h-4.68C89.1,25.16,89.86,24.06,91.36,24.06z M122.43,49.44c-1.48,0-2.73-1.03-2.73-2.89
	c0-1.88,1.2-2.91,2.68-2.91c1.39,0,2.09,0.85,2.35,1.74l3.2-0.96c-0.52-2.09-2.4-4.07-5.62-4.07c-3.43,0-6.16,2.56-6.16,6.2
	c0,3.62,2.8,6.18,6.28,6.18c3.13,0,5.05-2.02,5.57-4.07l-3.15-0.96C124.59,48.57,123.82,49.44,122.43,49.44z M91.83,40.35
	c-3.48,0-6.2,2.56-6.2,6.18c0,3.62,2.73,6.2,6.2,6.2c3.5,0,6.21-2.59,6.21-6.2C98.04,42.91,95.33,40.35,91.83,40.35z M91.83,49.44
	c-1.34,0-2.63-0.96-2.63-2.91c0-1.97,1.29-2.89,2.63-2.89c1.36,0,2.63,0.92,2.63,2.89S93.19,49.44,91.83,49.44z M102.5,42.27V40.7
	h-3.45v11.68h3.57v-5.1c0-2.33,1.29-3.17,2.73-3.17c0.35,0,0.73,0.02,1.13,0.12V40.7c-0.23-0.07-0.59-0.12-0.94-0.12
	C104.59,40.58,103.11,40.96,102.5,42.27z M113.08,37.29h-3.2v1.5c0,1.08-0.59,1.9-1.81,1.9h-0.59v3.13h2.07v5.01
	c0,2.33,1.48,3.76,3.9,3.76c1.13,0,1.72-0.26,1.86-0.33V49.3c-0.21,0.05-0.56,0.12-0.94,0.12c-0.78,0-1.29-0.26-1.29-1.22v-4.37
	h2.28V40.7h-2.28V37.29z"/>
</svg>
