<?xml version="1.0" encoding="utf-8"?>
<!-- Generator: Adobe Illustrator 23.0.3, SVG Export Plug-In . SVG Version: 6.00 Build 0)  -->
<svg version="1.1" id="Layer_1" xmlns="http://www.w3.org/2000/svg" xmlns:xlink="http://www.w3.org/1999/xlink" x="0px" y="0px"
	 viewBox="0 0 50.37 50.63" style="enable-background:new 0 0 50.37 50.63;" xml:space="preserve">
<style type="text/css">
	.st0{fill:#FFFFFF;}
</style>
<g>
	<path class="st0" d="M25.19,13.73c3.77,0,4.22,0.01,5.71,0.08c1.38,0.06,2.13,0.29,2.62,0.49c0.66,0.26,1.13,0.56,1.63,1.06
		c0.49,0.49,0.8,0.97,1.06,1.63c0.19,0.5,0.42,1.25,0.49,2.62c0.07,1.49,0.08,1.94,0.08,5.71s-0.01,4.22-0.08,5.71
		c-0.06,1.38-0.29,2.13-0.49,2.62c-0.26,0.66-0.56,1.13-1.06,1.63c-0.49,0.49-0.97,0.8-1.63,1.06c-0.5,0.19-1.25,0.42-2.62,0.49
		c-1.49,0.07-1.94,0.08-5.71,0.08s-4.22-0.01-5.71-0.08c-1.38-0.06-2.13-0.29-2.62-0.49c-0.66-0.26-1.13-0.56-1.63-1.06
		c-0.49-0.49-0.8-0.97-1.06-1.63c-0.19-0.5-0.42-1.25-0.49-2.62c-0.07-1.49-0.08-1.94-0.08-5.71s0.01-4.22,0.08-5.71
		c0.06-1.38,0.29-2.13,0.49-2.62c0.26-0.66,0.56-1.13,1.06-1.63c0.49-0.49,0.97-0.8,1.63-1.06c0.5-0.19,1.25-0.42,2.62-0.49
		C20.97,13.74,21.41,13.73,25.19,13.73 M25.19,11.18c-3.84,0-4.32,0.02-5.83,0.09c-1.5,0.07-2.53,0.31-3.43,0.66
		c-0.93,0.36-1.72,0.84-2.5,1.63c-0.79,0.79-1.27,1.57-1.63,2.5c-0.35,0.9-0.59,1.93-0.66,3.43c-0.07,1.51-0.09,1.99-0.09,5.83
		c0,3.84,0.02,4.32,0.09,5.83c0.07,1.5,0.31,2.53,0.66,3.43c0.36,0.93,0.84,1.72,1.63,2.5c0.79,0.79,1.57,1.27,2.5,1.63
		c0.9,0.35,1.93,0.59,3.43,0.66c1.51,0.07,1.99,0.09,5.83,0.09s4.32-0.02,5.83-0.09c1.5-0.07,2.53-0.31,3.43-0.66
		c0.93-0.36,1.72-0.84,2.5-1.63c0.79-0.79,1.27-1.57,1.63-2.5c0.35-0.9,0.59-1.93,0.66-3.43c0.07-1.51,0.09-1.99,0.09-5.83
		s-0.02-4.32-0.09-5.83c-0.07-1.5-0.31-2.53-0.66-3.43c-0.36-0.93-0.84-1.72-1.63-2.5c-0.79-0.79-1.57-1.27-2.5-1.63
		c-0.9-0.35-1.93-0.59-3.43-0.66C29.51,11.2,29.03,11.18,25.19,11.18L25.19,11.18z"/>
	<path class="st0" d="M25.19,18.06c-4.01,0-7.26,3.25-7.26,7.26s3.25,7.26,7.26,7.26s7.26-3.25,7.26-7.26S29.2,18.06,25.19,18.06z
		 M25.19,30.02c-2.6,0-4.71-2.11-4.71-4.71s2.11-4.71,4.71-4.71s4.71,2.11,4.71,4.71S27.79,30.02,25.19,30.02z"/>
	<circle class="st0" cx="32.73" cy="17.77" r="1.7"/>
</g>
</svg>
