<?xml version="1.0" encoding="utf-8"?>
<!-- Generator: Adobe Illustrator 23.0.3, SVG Export Plug-In . SVG Version: 6.00 Build 0)  -->
<svg version="1.1" id="Layer_1" xmlns="http://www.w3.org/2000/svg" xmlns:xlink="http://www.w3.org/1999/xlink" x="0px" y="0px"
	 viewBox="0 0 50.37 50.63" style="enable-background:new 0 0 50.37 50.63;" xml:space="preserve">
<style type="text/css">
	.st0{fill:#FFFFFF;}
</style>
<path class="st0" d="M41.06,15.47c-1.17,0.52-2.42,0.87-3.74,1.03c1.34-0.81,2.38-2.08,2.86-3.6c-1.26,0.75-2.65,1.29-4.13,1.58
	c-1.19-1.27-2.88-2.06-4.75-2.06c-3.6,0-6.51,2.92-6.51,6.51c0,0.51,0.06,1.01,0.17,1.48c-5.41-0.27-10.21-2.86-13.42-6.8
	c-0.56,0.96-0.88,2.08-0.88,3.27c0,2.26,1.15,4.25,2.89,5.42c-1.07-0.03-2.07-0.33-2.95-0.81v0.08c0,3.15,2.24,5.79,5.22,6.38
	c-0.55,0.15-1.12,0.23-1.72,0.23c-0.42,0-0.83-0.04-1.23-0.12c0.83,2.59,3.23,4.47,6.08,4.52c-2.23,1.75-5.03,2.79-8.09,2.79
	c-0.52,0-1.04-0.03-1.55-0.09c2.88,1.85,6.3,2.92,9.98,2.92c11.98,0,18.52-9.92,18.52-18.52c0-0.28-0.01-0.56-0.02-0.84
	C39.08,17.92,40.18,16.78,41.06,15.47z"/>
</svg>
